<svg xmlns="http://www.w3.org/2000/svg" xmlns:xlink="http://www.w3.org/1999/xlink" viewBox="0 0 41.57 76.9"><defs><clipPath id="a" transform="translate(0 0)"><rect width="41.57" height="76.9" fill="none"/></clipPath></defs><title>Vector Smart Object1</title><g clip-path="url(#a)"><path d="M40,0H30C18.84,0,11.59,7.43,11.59,18.92v8.73h-10A1.57,1.57,0,0,0,0,29.22V41.86a1.57,1.57,0,0,0,1.57,1.57h10v31.9a1.57,1.57,0,0,0,1.57,1.57H26.24a1.57,1.57,0,0,0,1.57-1.57V43.43H39.53a1.57,1.57,0,0,0,1.57-1.57V29.22a1.58,1.58,0,0,0-.46-1.11,1.57,1.57,0,0,0-1.11-.46H27.81v-7.4c0-3.56.85-5.36,5.48-5.36H40a1.57,1.57,0,0,0,1.57-1.57V1.59A1.57,1.57,0,0,0,40,0" transform="translate(0 0)" fill="#fff"/></g></svg>