<?xml version="1.0" encoding="utf-8"?>
<!-- Generator: Adobe Illustrator 19.2.1, SVG Export Plug-In . SVG Version: 6.00 Build 0)  -->
<svg version="1.1" id="Слой_1" xmlns="http://www.w3.org/2000/svg" xmlns:xlink="http://www.w3.org/1999/xlink" x="0px" y="0px"
	 viewBox="0 0 22 41.5" style="enable-background:new 0 0 22 41.5;" xml:space="preserve">
<style type="text/css">
	.st0{fill:#FFFFFF;}
</style>
<title>Vector Smart Object3</title>
<rect x="10" y="7" class="st0" width="2" height="6"/>
<polygon class="st0" points="10,24 10,38.6 6.4,35 5,36.5 10,41.5 11.4,41.5 17,37 16,35 12,38.3 12,24 "/>
<path class="st0" d="M13.8,31C13.8,31,13.8,31,13.8,31l0-2c3.4,0,6.2-2.8,6.2-6.2V8.2c0-1.7-0.6-3.2-1.8-4.4C17,2.7,15.4,2,13.8,2
	H8.2C4.8,2,2,4.8,2,8.2v14.5C2,26.2,4.8,29,8.2,29v2L8,31c-4.4-0.1-8-3.8-8-8.2V8.2C0,3.7,3.7,0,8.2,0h5.5C16,0,18,0.9,19.6,2.4
	C21.2,4,22,6,22,8.2v14.5c0,2.2-0.9,4.3-2.4,5.8c-1.5,1.5-3.5,2.3-5.6,2.4v0H13.8C13.8,31,13.8,31,13.8,31z"/>
</svg>
