<svg xmlns="http://www.w3.org/2000/svg" xmlns:xlink="http://www.w3.org/1999/xlink" viewBox="0 0 138.93 79.26"><defs><clipPath id="a" transform="translate(0 0)"><rect width="138.93" height="79.26" fill="none"/></clipPath></defs><title>Vector Smart Object2</title><g clip-path="url(#a)"><path d="M68,78.92h8.3a7,7,0,0,0,3.79-1.66,6.08,6.08,0,0,0,1.14-3.65s-0.16-11.14,5-12.78S97.86,71.61,104.8,76.37C110,80,114,79.18,114,79.18l18.55-.26s9.71-.6,5.1-8.23c-0.38-.62-2.68-5.64-13.8-16-11.63-10.8-10.07-9.05,3.94-27.73,8.53-11.37,11.95-18.32,10.88-21.29s-7.29-2.08-7.29-2.08l-20.89.13a4.75,4.75,0,0,0-2.7.48A5.82,5.82,0,0,0,106,6.48a121.22,121.22,0,0,1-7.72,16.29c-9.3,15.79-13,16.63-14.54,15.65-3.54-2.28-2.65-9.18-2.65-14.08C81.08,9,83.4,2.64,76.56,1c-2.27-.55-3.94-0.91-9.75-1C59.35-.06,53,0,49.47,1.79,47.1,3,45.26,5.55,46.38,5.7c1.38,0.18,4.51.84,6.16,3.1,2.14,2.91,2.07,9.45,2.07,9.45s1.23,18-2.87,20.26c-2.81,1.53-6.68-1.6-15-15.93A133.35,133.35,0,0,1,29.31,7.12a6.2,6.2,0,0,0-1.72-2.33,8.63,8.63,0,0,0-3.21-1.3L4.53,3.63S1.55,3.71.45,5,0.38,8.54.38,8.54,15.92,44.9,33.51,63.23C49.65,80,68,78.92,68,78.92" transform="translate(0 0)" fill="#fff"/></g></svg>