<svg xmlns="http://www.w3.org/2000/svg"><defs><clipPath id="a"><path d="M0 0h41.57v76.9H0z"/></clipPath><clipPath id="a"><path d="M0 0h138.93v79.26H0z"/></clipPath></defs><symbol id="icon_arrow" viewBox="0 0 47 10.01"><path d="M0 4.72V4h.28l4-4L5 .71l-.5.5.5.5L2.71 4H47v2H2.72L5 8.29l-.5.5.5.5-.71.71-4-4H0V4.72z"/></symbol><symbol id="icon_facebook" viewBox="0 0 41.57 76.9"><g clip-path="url(#a)"><path d="M40 0H30C18.84 0 11.59 7.43 11.59 18.92v8.73h-10A1.57 1.57 0 0 0 0 29.22v12.64a1.57 1.57 0 0 0 1.57 1.57h10v31.9a1.57 1.57 0 0 0 1.57 1.57h13.1a1.57 1.57 0 0 0 1.57-1.57v-31.9h11.72a1.57 1.57 0 0 0 1.57-1.57V29.22a1.58 1.58 0 0 0-.46-1.11 1.57 1.57 0 0 0-1.11-.46H27.81v-7.4c0-3.56.85-5.36 5.48-5.36H40a1.57 1.57 0 0 0 1.57-1.57V1.59A1.57 1.57 0 0 0 40 0"/></g></symbol><symbol id="icon_refresh" viewBox="0 0 612.035 612.035"><path d="M323.128 56.236l5.646-9.57 40.17-40.169C271.247-13.921 165.482 13.786 89.65 89.646-16.421 195.717-28.355 360.261 53.875 479.49L10.98 522.386l137.7 19.667-19.667-137.7-34.968 34.967c-60.978-96.724-49.322-226.078 34.94-310.34 53.244-53.243 124.486-77.501 194.143-72.744zm258.264 13.743l-137.7-19.667 19.668 137.7 38.25-38.25c78.726 98.31 72.521 242.186-18.583 333.317-61.116 61.117-145.989 84.039-224.882 68.739l-45.65 45.649c105.654 33.799 226.05 8.791 309.895-75.054 112.858-112.858 119.146-291.979 18.805-412.209l40.197-40.225z"/></symbol><symbol id="icon_scroll" viewBox="0 0 22 41.5"><path class="st0" d="M10 7h2v6h-2zm0 17v14.6L6.4 35 5 36.5l5 5h1.4L17 37l-1-2-4 3.3V24z"/><path class="st0" d="M13.8 31v-2c3.4 0 6.2-2.8 6.2-6.2V8.2c0-1.7-.6-3.2-1.8-4.4C17 2.7 15.4 2 13.8 2H8.2C4.8 2 2 4.8 2 8.2v14.5C2 26.2 4.8 29 8.2 29v2H8c-4.4-.1-8-3.8-8-8.2V8.2C0 3.7 3.7 0 8.2 0h5.5c2.3 0 4.3.9 5.9 2.4C21.2 4 22 6 22 8.2v14.5c0 2.2-.9 4.3-2.4 5.8s-3.5 2.3-5.6 2.4h-.2v.1z"/></symbol><symbol id="icon_star" viewBox="0 0 39 37"><path fill-rule="evenodd" d="M19.5 2.501l5.603 10.056 11.395 2.166-7.933 8.382 1.44 11.394L19.5 29.623 8.995 34.499l1.439-11.394-7.932-8.382 11.395-2.166L19.5 2.501"/></symbol><symbol id="icon_vk" viewBox="0 0 138.93 79.26"><g clip-path="url(#a)"><path d="M68 78.92h8.3a7 7 0 0 0 3.79-1.66 6.08 6.08 0 0 0 1.14-3.65s-.16-11.14 5-12.78 11.63 10.78 18.57 15.54c5.2 3.63 9.2 2.81 9.2 2.81l18.55-.26s9.71-.6 5.1-8.23c-.38-.62-2.68-5.64-13.8-16-11.63-10.8-10.07-9.05 3.94-27.73 8.53-11.37 11.95-18.32 10.88-21.29s-7.29-2.08-7.29-2.08l-20.89.13a4.75 4.75 0 0 0-2.7.48A5.82 5.82 0 0 0 106 6.48a121.22 121.22 0 0 1-7.72 16.29c-9.3 15.79-13 16.63-14.54 15.65-3.54-2.28-2.65-9.18-2.65-14.08C81.08 9 83.4 2.64 76.56 1c-2.27-.55-3.94-.91-9.75-1C59.35-.06 53 0 49.47 1.79 47.1 3 45.26 5.55 46.38 5.7c1.38.18 4.51.84 6.16 3.1 2.14 2.91 2.07 9.45 2.07 9.45s1.23 18-2.87 20.26c-2.81 1.53-6.68-1.6-15-15.93a133.35 133.35 0 0 1-7.43-15.46 6.2 6.2 0 0 0-1.72-2.33 8.63 8.63 0 0 0-3.21-1.3l-19.85.14S1.55 3.71.45 5 .38 8.54.38 8.54 15.92 44.9 33.51 63.23C49.65 80 68 78.92 68 78.92"/></g></symbol></svg>