<svg xmlns="http://www.w3.org/2000/svg" viewBox="0 0 112.24 100"><defs><clipPath id="a"><path fill="none" d="M0 0h112.24v100H0z"/></clipPath></defs><title>item3</title><g clip-path="url(#a)"><path d="M79 0H33.28a10.44 10.44 0 0 0-9 5.22L1.4 44.78a10.45 10.45 0 0 0 0 10.44l22.84 39.56a10.44 10.44 0 0 0 9 5.22H79a10.44 10.44 0 0 0 9-5.22l22.84-39.56a10.44 10.44 0 0 0 0-10.44L88 5.22A10.44 10.44 0 0 0 79 0"/><path d="M68 49a10 10 0 1 0-10 10 10 10 0 0 0 10-10" fill="#fff"/><path fill="none" stroke="#fff" stroke-miterlimit="10" stroke-width="2" d="M51.01 28l6 15m6 10l13 12m-14-17l11-5m-41 16l20-7m6 19l1-16"/><path d="M34 60.5a6.5 6.5 0 1 0-6.5 6.5 6.5 6.5 0 0 0 6.5-6.5m49 5a5.5 5.5 0 1 0-5.5 5.5 5.5 5.5 0 0 0 5.5-5.5" fill="#3cb6e9"/><circle cx="49.01" cy="22" r="7" fill="none" stroke="#3cb6e9" stroke-miterlimit="10" stroke-width="2"/><circle cx="79.51" cy="39.5" r="6.5" fill="none" stroke="#3cb6e9" stroke-miterlimit="10" stroke-width="2"/><circle cx="57.51" cy="78.5" r="7.5" fill="none" stroke="#3cb6e9" stroke-miterlimit="10" stroke-width="2"/></g></svg>