<svg xmlns="http://www.w3.org/2000/svg" viewBox="0 0 112.24 100"><defs><clipPath id="a"><path fill="none" d="M0 0h112.24v100H0z"/></clipPath></defs><title>item1</title><g clip-path="url(#a)"><path d="M79 0H33.28a10.44 10.44 0 0 0-9 5.22L1.4 44.78a10.45 10.45 0 0 0 0 10.44l22.84 39.56a10.44 10.44 0 0 0 9 5.22H79a10.44 10.44 0 0 0 9-5.22l22.84-39.56a10.45 10.45 0 0 0 0-10.44L88 5.22A10.44 10.44 0 0 0 79 0"/><path d="M57 67c-2 0-2.5 7.5-2.5 10.5S54 89 54 90s-3.92 4-5 0c-4.5-16.5-7.5-24.5-10-30-5.5-12.09-2.5-19.5 1.5-24.5 4.88-6.1 9-12 9-18s2.5-11.5 10-4c3.53 3.54 13 16 14 32 .5 8-6 22-8 36-1 7-5 10-5 4 .01-13 .01-18.5-3.5-18.5z" fill="none" stroke="#fff" stroke-miterlimit="10" stroke-width="2"/><path d="M34 51.5a5.5 5.5 0 1 0-5.5 5.5 5.5 5.5 0 0 0 5.5-5.5M34 29a4 4 0 1 0-4 4 4 4 0 0 0 4-4m42-12a4 4 0 1 0-4 4 4 4 0 0 0 4-4m-34 .5a2.5 2.5 0 1 0-2.5 2.5 2.5 2.5 0 0 0 2.5-2.5m37 9a1.5 1.5 0 1 0-1.5 1.5 1.5 1.5 0 0 0 1.5-1.5M43 38a3 3 0 1 0-3 3 3 3 0 0 0 3-3" fill="#3cb6e9"/></g></svg>