<svg xmlns="http://www.w3.org/2000/svg" viewBox="0 0 112.24 100"><defs><clipPath id="a"><path fill="none" d="M0 0h112.24v100H0z"/></clipPath></defs><title>item5</title><g clip-path="url(#a)"><path d="M79 0H33.28a10.44 10.44 0 0 0-9 5.22L1.4 44.78a10.45 10.45 0 0 0 0 10.44l22.84 39.56a10.44 10.44 0 0 0 9 5.22H79a10.44 10.44 0 0 0 9-5.22l22.84-39.56a10.45 10.45 0 0 0 0-10.44L88 5.22A10.44 10.44 0 0 0 79 0"/><ellipse cx="33.51" cy="70" rx="4.5" ry="6" transform="rotate(-24.79 33.51 69.994)" fill="none" stroke="#fff" stroke-miterlimit="10" stroke-width="2"/><path d="M30 65c7-3.75 34-19 40-22s9.09 7.18 5 9c-9 4-39 23-39 23m6-4c9.25-5 8-16.5 17-22m-2 13c9.25-5 7-14.5 16-20" fill="none" stroke="#fff" stroke-miterlimit="10" stroke-width="2"/><path fill="none" stroke="#3cb6e9" stroke-miterlimit="10" stroke-width="2" d="M56.01 25V15M31.62 35.11l-7.07-7.08m62.93 0l-7.07 7.07m-37.6-7.47l-3.82-9.24m58.14 24.08l-9.24 3.83m-63.75 0l-9.24-3.83m58.14-24.08l-3.82 9.24"/></g></svg>