<svg xmlns="http://www.w3.org/2000/svg" xmlns:xlink="http://www.w3.org/1999/xlink" viewBox="0 0 112.24 100"><defs><clipPath id="a" transform="translate(0)"><rect width="112.24" height="100" fill="none"/></clipPath></defs><title>item2</title><g clip-path="url(#a)"><path d="M79,0H33.28a10.44,10.44,0,0,0-9,5.22L1.4,44.78a10.45,10.45,0,0,0,0,10.44L24.24,94.78a10.44,10.44,0,0,0,9,5.22H79a10.44,10.44,0,0,0,9-5.22l22.84-39.56a10.45,10.45,0,0,0,0-10.44L88,5.22A10.44,10.44,0,0,0,79,0" transform="translate(0)"/><path d="M57,67c-2,0-2.5,7.5-2.5,10.5S54,89,54,90s-3.92,4-5,0c-4.5-16.5-7.5-24.5-10-30-5.5-12.09-2.5-19.5,1.5-24.5,4.88-6.1,9-12,9-18s2.5-11.5,10-4c3.53,3.54,13,16,14,32,0.5,8-6,22-8,36-1,7-5,10-5,4C60.51,72.5,60.51,67,57,67Z" transform="translate(0)" fill="none" stroke="#fff" stroke-miterlimit="10" stroke-width="2"/><path d="M32.51,90.5c0-11,1-32,24-32s24,24,24,32" transform="translate(0)" fill="none" stroke="#3cb6e9" stroke-miterlimit="10" stroke-width="3"/></g></svg>