<svg xmlns="http://www.w3.org/2000/svg" xmlns:xlink="http://www.w3.org/1999/xlink" viewBox="0 0 112.24 100"><defs><clipPath id="a" transform="translate(0)"><rect width="112.24" height="100" fill="none"/></clipPath></defs><title>item5</title><g clip-path="url(#a)"><path d="M79,0H33.28a10.44,10.44,0,0,0-9,5.22L1.4,44.78a10.45,10.45,0,0,0,0,10.44L24.24,94.78a10.44,10.44,0,0,0,9,5.22H79a10.44,10.44,0,0,0,9-5.22l22.84-39.56a10.45,10.45,0,0,0,0-10.44L88,5.22A10.44,10.44,0,0,0,79,0" transform="translate(0)"/><ellipse cx="33.51" cy="70" rx="4.5" ry="6" transform="translate(-26.26 20.5) rotate(-24.79)" fill="none" stroke="#fff" stroke-miterlimit="10" stroke-width="2"/><path d="M30,65c7-3.75,34-19,40-22s9.09,7.18,5,9c-9,4-39,23-39,23" transform="translate(0)" fill="none" stroke="#fff" stroke-miterlimit="10" stroke-width="2"/><path d="M42,71c9.25-5,8-16.5,17-22" transform="translate(0)" fill="none" stroke="#fff" stroke-miterlimit="10" stroke-width="2"/><path d="M57,62c9.25-5,7-14.5,16-20" transform="translate(0)" fill="none" stroke="#fff" stroke-miterlimit="10" stroke-width="2"/><line x1="56.01" y1="25" x2="56.01" y2="15" fill="none" stroke="#3cb6e9" stroke-miterlimit="10" stroke-width="2"/><line x1="31.62" y1="35.11" x2="24.55" y2="28.03" fill="none" stroke="#3cb6e9" stroke-miterlimit="10" stroke-width="2"/><line x1="87.48" y1="28.03" x2="80.41" y2="35.1" fill="none" stroke="#3cb6e9" stroke-miterlimit="10" stroke-width="2"/><line x1="42.81" y1="27.63" x2="38.99" y2="18.39" fill="none" stroke="#3cb6e9" stroke-miterlimit="10" stroke-width="2"/><line x1="97.13" y1="42.47" x2="87.89" y2="46.3" fill="none" stroke="#3cb6e9" stroke-miterlimit="10" stroke-width="2"/><line x1="24.14" y1="46.3" x2="14.9" y2="42.47" fill="none" stroke="#3cb6e9" stroke-miterlimit="10" stroke-width="2"/><line x1="73.04" y1="18.39" x2="69.22" y2="27.63" fill="none" stroke="#3cb6e9" stroke-miterlimit="10" stroke-width="2"/></g></svg>