<svg xmlns="http://www.w3.org/2000/svg" xmlns:xlink="http://www.w3.org/1999/xlink" viewBox="0 0 112.24 100"><defs><clipPath id="a" transform="translate(0)"><rect width="112.24" height="100" fill="none"/></clipPath></defs><title>item3</title><g clip-path="url(#a)"><path d="M79,0H33.28a10.44,10.44,0,0,0-9,5.22L1.4,44.78a10.45,10.45,0,0,0,0,10.44L24.24,94.78a10.44,10.44,0,0,0,9,5.22H79a10.44,10.44,0,0,0,9-5.22l22.84-39.56a10.44,10.44,0,0,0,0-10.44L88,5.22A10.44,10.44,0,0,0,79,0" transform="translate(0)"/><path d="M68,49A10,10,0,1,0,58,59,10,10,0,0,0,68,49" transform="translate(0)" fill="#fff"/><line x1="51.01" y1="28" x2="57.01" y2="43" fill="none" stroke="#fff" stroke-miterlimit="10" stroke-width="2"/><line x1="63.01" y1="53" x2="76.01" y2="65" fill="none" stroke="#fff" stroke-miterlimit="10" stroke-width="2"/><line x1="62.01" y1="48" x2="73.01" y2="43" fill="none" stroke="#fff" stroke-miterlimit="10" stroke-width="2"/><line x1="32.01" y1="59" x2="52.01" y2="52" fill="none" stroke="#fff" stroke-miterlimit="10" stroke-width="2"/><line x1="58.01" y1="71" x2="59.01" y2="55" fill="none" stroke="#fff" stroke-miterlimit="10" stroke-width="2"/><path d="M34,60.5a6.5,6.5,0,1,0-6.5,6.5A6.5,6.5,0,0,0,34,60.5" transform="translate(0)" fill="#3cb6e9"/><path d="M83,65.5a5.5,5.5,0,1,0-5.5,5.5A5.5,5.5,0,0,0,83,65.5" transform="translate(0)" fill="#3cb6e9"/><circle cx="49.01" cy="22" r="7" fill="none" stroke="#3cb6e9" stroke-miterlimit="10" stroke-width="2"/><circle cx="79.51" cy="39.5" r="6.5" fill="none" stroke="#3cb6e9" stroke-miterlimit="10" stroke-width="2"/><circle cx="57.51" cy="78.5" r="7.5" fill="none" stroke="#3cb6e9" stroke-miterlimit="10" stroke-width="2"/></g></svg>