<svg xmlns="http://www.w3.org/2000/svg" xmlns:xlink="http://www.w3.org/1999/xlink" viewBox="0 0 112.24 100"><defs><clipPath id="a" transform="translate(0)"><rect width="112.24" height="100" fill="none"/></clipPath></defs><title>item4</title><g clip-path="url(#a)"><path d="M79,0H33.28a10.44,10.44,0,0,0-9,5.22L1.4,44.78a10.45,10.45,0,0,0,0,10.44L24.24,94.78a10.44,10.44,0,0,0,9,5.22H79a10.44,10.44,0,0,0,9-5.22l22.84-39.56a10.44,10.44,0,0,0,0-10.44L88,5.22A10.44,10.44,0,0,0,79,0" transform="translate(0)"/><ellipse cx="78.67" cy="29.12" rx="5.23" ry="11.8" transform="translate(0.38 59.26) rotate(-41.37)" fill="none" stroke="#3cb6e9" stroke-miterlimit="10" stroke-width="2"/><ellipse cx="42.67" cy="75.12" rx="5.23" ry="11.8" transform="translate(-43.07 85.75) rotate(-67.46)" fill="none" stroke="#3cb6e9" stroke-miterlimit="10" stroke-width="2"/><ellipse cx="78.67" cy="69.12" rx="11.8" ry="5.23" transform="translate(-20.53 102.69) rotate(-60)" fill="none" stroke="#3cb6e9" stroke-miterlimit="10" stroke-width="2"/><ellipse cx="59.67" cy="51.12" rx="5.23" ry="11.8" transform="translate(-7.94 11.09) rotate(-9.96)" fill="none" stroke="#3cb6e9" stroke-miterlimit="10" stroke-width="2"/><path d="M23.62,51.35c-10.1-27,14.06-33.68,33.47-33.24-7.9,7.39-9.54,20-14.41,26.41C36.73,52.37,23.62,51.35,23.62,51.35Z" transform="translate(0)" fill="none" stroke="#fff" stroke-miterlimit="10" stroke-width="2"/><path d="M18.87,58.46c4.81-3,6-21.19,19.51-26.24" transform="translate(0)" fill="none" stroke="#fff" stroke-linecap="round" stroke-miterlimit="10" stroke-width="2"/></g></svg>