<svg xmlns="http://www.w3.org/2000/svg" xmlns:xlink="http://www.w3.org/1999/xlink" viewBox="0 0 112.24 100"><defs><clipPath id="a" transform="translate(0)"><rect width="112.24" height="100" fill="none"/></clipPath></defs><title>item1</title><g clip-path="url(#a)"><path d="M79,0H33.28a10.44,10.44,0,0,0-9,5.22L1.4,44.78a10.45,10.45,0,0,0,0,10.44L24.24,94.78a10.44,10.44,0,0,0,9,5.22H79a10.44,10.44,0,0,0,9-5.22l22.84-39.56a10.45,10.45,0,0,0,0-10.44L88,5.22A10.44,10.44,0,0,0,79,0" transform="translate(0)"/><path d="M57,67c-2,0-2.5,7.5-2.5,10.5S54,89,54,90s-3.92,4-5,0c-4.5-16.5-7.5-24.5-10-30-5.5-12.09-2.5-19.5,1.5-24.5,4.88-6.1,9-12,9-18s2.5-11.5,10-4c3.53,3.54,13,16,14,32,0.5,8-6,22-8,36-1,7-5,10-5,4C60.51,72.5,60.51,67,57,67Z" transform="translate(0)" fill="none" stroke="#fff" stroke-miterlimit="10" stroke-width="2"/><path d="M34,51.5a5.5,5.5,0,1,0-5.5,5.5A5.5,5.5,0,0,0,34,51.5" transform="translate(0)" fill="#3cb6e9"/><path d="M34,29a4,4,0,1,0-4,4,4,4,0,0,0,4-4" transform="translate(0)" fill="#3cb6e9"/><path d="M76,17a4,4,0,1,0-4,4,4,4,0,0,0,4-4" transform="translate(0)" fill="#3cb6e9"/><path d="M42,17.5a2.5,2.5,0,1,0-2.5,2.5A2.5,2.5,0,0,0,42,17.5" transform="translate(0)" fill="#3cb6e9"/><path d="M79,26.5a1.5,1.5,0,1,0-1.5,1.5A1.5,1.5,0,0,0,79,26.5" transform="translate(0)" fill="#3cb6e9"/><path d="M43,38a3,3,0,1,0-3,3,3,3,0,0,0,3-3" transform="translate(0)" fill="#3cb6e9"/></g></svg>